<svg width="40" height="40" viewBox="0 0 40 40" fill="none" xmlns="http://www.w3.org/2000/svg">
    <path d="M18.75 15H21.25V13.75C21.25 13.4185 21.3817 13.1005 21.6161 12.8661C21.8505 12.6317 22.1685 12.5 22.5 12.5H26.25C26.5815 12.5 26.8995 12.6317 27.1339 12.8661C27.3683 13.1005 27.5 13.4185 27.5 13.75V15H32.5V10C32.5 8.67392 31.9732 7.40215 31.0355 6.46447C30.0979 5.52678 28.8261 5 27.5 5H12.5C11.1739 5 9.90215 5.52678 8.96447 6.46447C8.02678 7.40215 7.5 8.67392 7.5 10V15H12.5V13.75C12.5 13.4185 12.6317 13.1005 12.8661 12.8661C13.1005 12.6317 13.4185 12.5 13.75 12.5H17.5C17.8315 12.5 18.1495 12.6317 18.3839 12.8661C18.6183 13.1005 18.75 13.4185 18.75 13.75V15Z" fill="black"/>
    <path d="M8.75 17.5C7.0924 17.5 5.50269 18.1585 4.33058 19.3306C3.15848 20.5027 2.5 22.0924 2.5 23.75V33.75C2.5 34.0815 2.6317 34.3995 2.86612 34.6339C3.10054 34.8683 3.41848 35 3.75 35C4.08152 35 4.39946 34.8683 4.63388 34.6339C4.8683 34.3995 5 34.0815 5 33.75V27.5H35V33.75C35 34.0815 35.1317 34.3995 35.3661 34.6339C35.6005 34.8683 35.9185 35 36.25 35C36.5815 35 36.8995 34.8683 37.1339 34.6339C37.3683 34.3995 37.5 34.0815 37.5 33.75V23.75C37.5 22.0924 36.8415 20.5027 35.6694 19.3306C34.4973 18.1585 32.9076 17.5 31.25 17.5H8.75Z" fill="black"/>
</svg>
