<svg width="40" height="40" viewBox="0 0 40 40" fill="none" xmlns="http://www.w3.org/2000/svg">
    <path d="M28.4023 18.9889C28.2836 18.8937 28.1359 18.8418 27.9837 18.8418C27.8315 18.8418 27.6838 18.8937 27.565 18.9889L21.5783 23.8103C21.5015 23.8722 21.4396 23.9506 21.3971 24.0397C21.3546 24.1288 21.3327 24.2262 21.333 24.3249V36.6583C21.333 36.8372 21.4041 37.0088 21.5306 37.1353C21.6571 37.2618 21.8287 37.3329 22.0077 37.3329H25.9917C26.1706 37.3329 26.3422 37.2618 26.4687 37.1353C26.5953 37.0088 26.6663 36.8372 26.6663 36.6583V31.9996H29.333V36.6583C29.333 36.8372 29.4041 37.0088 29.5306 37.1353C29.6571 37.2618 29.8287 37.3329 30.0077 37.3329H33.9917C34.1706 37.3329 34.3422 37.2618 34.4687 37.1353C34.5953 37.0088 34.6663 36.8372 34.6663 36.6583V24.3196C34.6682 24.2174 34.6466 24.1162 34.6031 24.0237C34.5597 23.9313 34.4955 23.85 34.4157 23.7863L28.4023 18.9889ZM26.6663 29.3329H23.9997V26.6663H26.6663V29.3329ZM31.9997 29.3329H29.333V26.6663H31.9997V29.3329ZM15.2263 4.8396C15.165 4.74719 15.0818 4.67138 14.9841 4.61894C14.8864 4.56651 14.7772 4.53906 14.6663 4.53906C14.5555 4.53906 14.4463 4.56651 14.3486 4.61894C14.2509 4.67138 14.1676 4.74719 14.1063 4.8396L5.44501 15.8289C5.37162 15.9396 5.33264 16.0695 5.33301 16.2023V36.6583C5.33266 36.7465 5.3497 36.834 5.38314 36.9156C5.41659 36.9973 5.4658 37.0716 5.52795 37.1342C5.5901 37.1969 5.66399 37.2467 5.74539 37.2808C5.82678 37.3149 5.9141 37.3326 6.00235 37.3329H12.669C12.8458 37.3308 13.0147 37.2591 13.139 37.1333C13.2633 37.0075 13.333 36.8378 13.333 36.6609V31.9996H15.9997V36.6609C15.9997 36.8392 16.0705 37.0101 16.1965 37.1361C16.3225 37.2621 16.4935 37.3329 16.6717 37.3329H18.6663V21.3329C18.6662 21.1326 18.7112 20.9349 18.798 20.7544C18.8848 20.5739 19.0112 20.4152 19.1677 20.2903L23.9997 15.9996C23.9997 15.8663 15.2263 4.8396 15.2263 4.8396ZM10.6663 26.6663H7.99968V23.9996H10.6663V26.6663ZM10.6663 18.6663H7.99968V15.9996H10.6663V18.6663ZM15.9997 26.6663H13.333V23.9996H15.9997V26.6663ZM15.9997 18.6663H13.333V15.9996H15.9997V18.6663Z" fill="black"/>
</svg>
