<svg width="282" height="48" viewBox="0 0 282 48" fill="none" xmlns="http://www.w3.org/2000/svg">
    <path d="M215.042 -102.657C205.779 -98.9313 180.011 -88.534 159.468 -80.3017C138.926 -72.0695 111.066 -62.8809 91.7886 -53.2635C72.5108 -43.6462 58.8973 -31.449 43.8012 -22.5979C28.7052 -13.7467 22.7599 -9.51889 1.21202 -0.156555C-20.3359 9.20578 -64.1342 24.2228 -85.4862 33.5761C-106.838 42.9295 -119.997 52.2322 -126.9 55.9634L132.924 97.3557L474.865 -61.265L215.042 -102.657Z" fill="url(#paint0_linear_1217_5344)"/>
    <path d="M242.429 -96.865C236.376 -92.7009 221.862 -79.2056 206.107 -71.88C190.352 -64.5544 164.779 -59.3885 147.9 -52.9116C131.02 -46.4347 120.052 -41.7045 104.83 -33.0187C89.6092 -24.333 72.4148 -9.5781 56.5726 -0.797029C40.7304 7.98405 27.6119 12.6896 9.77721 19.6677C-8.05753 26.6458 -33.0658 34.3125 -50.4358 41.0714C-67.8058 47.8303 -87.1085 57.0296 -94.443 60.2212L138.377 97.4636L475.249 -59.6227L242.429 -96.865Z" fill="url(#paint1_linear_1217_5344)"/>
    <path d="M266.846 -92.5037C259.782 -89.6607 237.486 -82.9194 224.463 -75.4456C211.44 -67.9717 202.785 -55.3764 188.708 -47.6606C174.63 -39.9448 156.673 -34.2977 139.997 -29.1506C123.322 -24.0035 99.9633 -21.8736 88.6557 -16.7779C77.3482 -11.6822 82.3092 -5.83424 72.1521 1.42381C61.9949 8.68187 46.7968 19.8923 27.7127 26.7704C8.62852 33.6485 -26.3448 36.4719 -42.3527 42.6923C-58.3607 48.9128 -64.0048 60.5263 -68.3352 64.0931L140.191 97.4991L475.372 -59.0977L266.846 -92.5037Z" fill="url(#paint2_linear_1217_5344)"/>
    <path d="M292.547 -87.2861C284.034 -83.7004 258.103 -74.9699 241.469 -65.7718C224.834 -56.5737 209.855 -41.6853 192.74 -32.0975C175.624 -22.5096 162.252 -16.6249 138.775 -8.24484C115.298 0.135245 75.0432 9.55523 51.8789 18.183C28.7146 26.8108 14.8387 35.1965 -0.211033 43.522C-15.2608 51.8475 -32.0515 64.0337 -38.4196 68.1361L144.701 97.5893L475.668 -57.8329L292.547 -87.2861Z" fill="url(#paint3_linear_1217_5344)"/>
    <path d="M317.897 -82.0576C310.806 -78.0758 290.49 -65.5199 275.352 -58.1669C260.214 -50.814 243.651 -45.7218 227.068 -37.9401C210.486 -30.1583 195.4 -19.2358 175.858 -11.4766C156.316 -3.71735 122.898 2.27692 109.815 8.61535C96.7312 14.9538 109.277 19.8219 97.3563 26.554C85.4355 33.2861 55.9189 41.4105 38.2902 49.0079C20.6615 56.6053 -0.631596 68.2833 -8.41597 72.1384L149.664 97.6871L475.977 -56.5089L317.897 -82.0576Z" fill="url(#paint4_linear_1217_5344)"/>
    <path d="M342.995 -76.7154C336.53 -73.8327 318.195 -66.9032 304.207 -59.4195C290.219 -51.9357 278.445 -40.3206 259.069 -31.8128C239.693 -23.3051 205.837 -16.0898 187.95 -8.37295C170.063 -0.65604 166.323 7.34179 151.747 14.4886C137.17 21.6354 110.73 28.1893 100.49 34.5078C90.2495 40.8263 103.357 45.4643 90.3065 52.3994C77.2555 59.3345 33.5375 72.1653 22.1836 76.1185L155.512 97.802L476.323 -55.0319L342.995 -76.7154Z" fill="url(#paint5_linear_1217_5344)"/>
    <path d="M367.138 -71.6844C359.504 -67.1208 336.992 -50.7925 321.332 -44.3028C305.671 -37.8131 287.377 -38.3788 273.175 -32.7463C258.973 -27.1138 249.022 -18.3912 236.12 -10.5077C223.217 -2.62425 212.798 6.5087 195.761 14.5545C178.724 22.6003 150.922 30.9547 133.895 37.7672C116.868 44.5797 107.364 48.3923 93.5994 55.4298C79.8344 62.4672 58.3542 75.8982 51.3051 79.9919L160.784 97.9065L476.617 -53.7698L367.138 -71.6844Z" fill="url(#paint6_linear_1217_5344)"/>
    <path d="M390.574 -66.8168C381.205 -63.6998 353.617 -56.9404 334.363 -48.1146C315.109 -39.2887 288.965 -22.6994 275.052 -13.8618C261.138 -5.02416 264.938 -3.55372 250.883 4.91103C236.827 13.3758 207.464 28.2912 190.718 36.9267C173.972 45.5622 168.927 48.9132 150.407 56.7242C131.887 64.5352 91.3996 79.2814 79.5981 83.7928L165.915 98.0086L476.891 -52.6011L390.574 -66.8168Z" fill="url(#paint7_linear_1217_5344)"/>
    <path d="M414.194 -61.265C402.331 -55.8963 366.121 -40.882 343.017 -29.0529C319.912 -17.2239 302.289 -3.1683 275.568 9.70943C248.846 22.5872 210.033 35.2219 182.686 48.2134C155.339 61.2049 123.352 81.0843 111.485 87.6584L174.616 98.1798L477.325 -50.7436L414.194 -61.265Z" fill="url(#paint8_linear_1217_5344)"/>
    <path d="M436.612 -56.0652C425.41 -50.9368 387.254 -35.4225 369.396 -25.2947C351.539 -15.1669 347.186 -4.29292 329.467 4.70152C311.748 13.696 283.914 19.9925 263.082 28.672C242.25 37.3514 224.713 46.3218 204.475 56.7781C184.237 67.2345 152.123 85.6379 141.653 91.4099L182.742 98.3415L477.701 -49.1336L436.612 -56.0652Z" fill="url(#paint9_linear_1217_5344)"/>
    <path d="M457.681 -51.6413C448.942 -48.1095 416.074 -36.6897 405.247 -30.4507C394.42 -24.2117 404.505 -20.3912 392.718 -14.2072C380.93 -8.02316 346.007 0.926407 334.522 6.65346C323.036 12.3805 337.074 14.255 323.806 20.1551C310.539 26.0553 268.427 34.5298 254.914 42.0542C241.402 49.5786 251.88 60.6704 242.732 65.3017C233.584 69.9331 212.567 64.8929 200.028 69.8423C187.489 74.7917 172.921 90.8055 167.499 94.9981L187.737 98.4396L477.919 -48.1999L457.681 -51.6413Z" fill="url(#paint10_linear_1217_5344)"/>
    <defs>
        <linearGradient id="paint0_linear_1217_5344" x1="229.67" y1="-100.327" x2="172.015" y2="131.448" gradientUnits="userSpaceOnUse">
            <stop stop-color="#F8F4F1"/>
        </linearGradient>
        <linearGradient id="paint1_linear_1217_5344" x1="263.771" y1="-93.4512" x2="202.225" y2="138.997" gradientUnits="userSpaceOnUse">
            <stop stop-color="#F8F1F1"/>
            <stop offset="0.0909091" stop-color="#F8F1F2"/>
        </linearGradient>
        <linearGradient id="paint2_linear_1217_5344" x1="274.24" y1="-91.3192" x2="211.177" y2="141.469" gradientUnits="userSpaceOnUse">
            <stop stop-color="#F8F1F5"/>
            <stop offset="0.181818" stop-color="#F8F1F6"/>
        </linearGradient>
        <linearGradient id="paint3_linear_1217_5344" x1="298.58" y1="-86.3157" x2="231.137" y2="147.596" gradientUnits="userSpaceOnUse">
            <stop stop-color="#F8F1F8"/>
            <stop offset="0.272727" stop-color="#F7F1F8"/>
        </linearGradient>
        <linearGradient id="paint4_linear_1217_5344" x1="322.84" y1="-81.2588" x2="249.297" y2="154.385" gradientUnits="userSpaceOnUse">
            <stop stop-color="#F4F1F8"/>
            <stop offset="0.363636" stop-color="#F3F1F8"/>
        </linearGradient>
        <linearGradient id="paint5_linear_1217_5344" x1="348.451" y1="-75.828" x2="265.245" y2="162.58" gradientUnits="userSpaceOnUse">
            <stop stop-color="#F1F2F8"/>
            <stop offset="0.454545" stop-color="#F1F3F8"/>
        </linearGradient>
        <linearGradient id="paint6_linear_1217_5344" x1="369.132" y1="-71.3582" x2="273.696" y2="170.169" gradientUnits="userSpaceOnUse">
            <stop stop-color="#F1F6F8"/>
            <stop offset="0.545455" stop-color="#F1F7F8"/>
        </linearGradient>
        <linearGradient id="paint7_linear_1217_5344" x1="387.328" y1="-67.3513" x2="274.809" y2="177.422" gradientUnits="userSpaceOnUse">
            <stop stop-color="#F1F8F6"/>
            <stop offset="0.636364" stop-color="#F1F8F5"/>
        </linearGradient>
        <linearGradient id="paint8_linear_1217_5344" x1="414.423" y1="-61.2268" x2="250.174" y2="183.965" gradientUnits="userSpaceOnUse">
            <stop stop-color="#F1F8F2"/>
            <stop offset="0.727273" stop-color="#F1F8F1"/>
        </linearGradient>
        <linearGradient id="paint9_linear_1217_5344" x1="436.078" y1="-56.1554" x2="172.811" y2="139.425" gradientUnits="userSpaceOnUse">
            <stop stop-color="#F3F8F1"/>
            <stop offset="0.818182" stop-color="#F4F8F1"/>
        </linearGradient>
        <linearGradient id="paint10_linear_1217_5344" x1="447.888" y1="-53.3066" x2="137.333" y2="13.1133" gradientUnits="userSpaceOnUse">
            <stop stop-color="#F7F8F1"/>
            <stop offset="0.909091" stop-color="#F8F8F1"/>
        </linearGradient>
    </defs>
</svg>
