<svg width="1440" height="751" viewBox="0 0 1440 751" fill="none" xmlns="http://www.w3.org/2000/svg">
    <g clip-path="url(#clip0_1969_9831)">
        <path d="M1440 0H0V751H1440V0Z" fill="#F8F5F1"/>
        <path d="M1113.27 -1144.41C1073.49 -1091.78 962.876 -944.877 874.585 -828.629C786.295 -712.381 662.625 -584.852 583.529 -446.917C504.433 -308.981 459.324 -129.157 400.01 -1.01609C340.696 127.125 318.812 188.903 227.644 321.927C136.476 454.951 -56.8096 664.154 -146.997 797.13C-237.184 930.105 -285.733 1066 -313.481 1119.78L1092.52 1868.05L2519.27 -396.132L1113.27 -1144.41Z" fill="url(#paint0_linear_1969_9831)"/>
        <path d="M1242.77 -1073.84C1219.85 -1012.56 1171.93 -811.592 1105.25 -706.114C1038.58 -600.635 916.893 -532.879 842.714 -440.972C768.534 -349.065 721.374 -281.321 660.176 -154.672C598.978 -28.0237 539.74 191.089 475.527 318.919C411.314 446.749 353.006 513.129 274.897 612.309C196.789 711.489 83.0244 817.975 6.87628 913.997C-69.2717 1010.02 -150.513 1142.7 -181.991 1188.44L1094.51 1868.05L2519.27 -394.226L1242.77 -1073.84Z" fill="url(#paint1_linear_1969_9831)"/>
        <path d="M1370.93 -1005.08C1340 -964.467 1237.89 -870.73 1185.35 -761.418C1132.81 -652.106 1113.19 -461.765 1055.66 -349.206C998.131 -236.647 916.334 -157.793 840.183 -86.0616C764.033 -14.3307 647.174 7.76914 598.757 81.1801C550.339 154.591 587.794 247.102 549.678 354.405C511.563 461.707 455.233 627.667 370.063 724.995C284.893 822.323 109.195 849.773 38.6583 938.372C-31.8787 1026.97 -37.8554 1203.55 -53.1582 1256.59L1095.19 1868.05L2519.27 -393.609L1370.93 -1005.08Z" fill="url(#paint2_linear_1969_9831)"/>
        <path d="M1499.65 -935.226C1462.23 -883.492 1343.85 -759.96 1275.15 -624.821C1206.46 -489.683 1157.91 -265.363 1087.48 -124.395C1017.04 16.5743 958.777 101.758 852.552 220.992C746.328 340.226 554.217 467.782 450.131 591.011C346.044 714.24 290.178 838.044 228.035 960.365C165.892 1082.69 102.399 1264.18 77.2715 1324.94L1096.9 1868.05L2519.27 -392.112L1499.65 -935.226Z" fill="url(#paint3_linear_1969_9831)"/>
        <path d="M1628.2 -865.35C1598.61 -806.394 1516.16 -619.516 1450.66 -511.614C1385.17 -403.713 1307.53 -331.869 1235.24 -217.941C1162.95 -104.013 1104.96 59.781 1016.9 171.953C928.848 284.125 763.549 362.094 706.911 455.092C650.273 548.09 726.743 630.231 677.076 729.942C627.41 829.652 487.134 942.81 408.912 1053.36C330.69 1163.9 241.272 1336.58 207.744 1393.22L1098.82 1868.05L2519.27 -390.52L1628.2 -865.35Z" fill="url(#paint4_linear_1969_9831)"/>
        <path d="M1756.61 -795.311C1727.64 -752.945 1642.91 -652.455 1582.75 -541.117C1522.59 -429.779 1482.76 -252.177 1395.63 -127.283C1308.51 -2.39 1140.72 95.11 1060.02 208.243C979.31 321.376 975.424 445.778 911.4 551.514C847.376 657.25 718.207 747.897 675.871 842.658C633.534 937.418 713.611 1016.94 657.38 1120.07C601.148 1223.21 391.63 1404.56 338.48 1461.45L1101.14 1868.05L2519.27 -388.711L1756.61 -795.311Z" fill="url(#paint5_linear_1969_9831)"/>
        <path d="M1884.57 -725.67C1852.18 -656.898 1762.51 -408.473 1690.19 -313.037C1617.88 -217.601 1516.77 -235.586 1450.68 -153.056C1384.58 -70.5255 1348.01 63.2035 1293.61 182.146C1239.21 301.088 1200.92 441.109 1124.26 560.598C1047.6 680.087 912.757 799.187 833.634 899.082C754.512 998.977 710.368 1054.89 649.526 1159.97C588.684 1265.04 498.738 1467.93 468.581 1529.52L1103.28 1868.05L2519.27 -387.136L1884.57 -725.67Z" fill="url(#paint6_linear_1969_9831)"/>
        <path d="M2012.18 -656.244C1966.68 -611.068 1827.73 -516.742 1739.17 -385.189C1650.62 -253.636 1539.79 -1.33709 1480.83 133.076C1421.87 267.489 1445.92 292.913 1385.4 421.291C1324.89 549.668 1192.81 773.578 1117.75 903.342C1042.69 1033.11 1021.61 1084.19 935.036 1199.87C848.463 1315.56 654.435 1531.19 598.315 1597.46L1105.41 1868.05L2519.27 -385.649L2012.18 -656.244Z" fill="url(#paint7_linear_1969_9831)"/>
        <path d="M2139.81 -585.864C2083.58 -505.196 1909.15 -281.161 1802.47 -101.856C1695.79 77.4484 1624.75 295.573 1499.72 489.963C1374.68 684.354 1180.61 868.58 1052.27 1064.49C923.921 1260.39 783.416 1565.25 729.646 1665.41L1109.11 1868.05L2519.27 -383.216L2139.81 -585.864Z" fill="url(#paint8_linear_1969_9831)"/>
        <path d="M2266.83 -515.941C2212.43 -438.232 2023.15 -205.416 1940.46 -49.6868C1857.76 106.043 1854.89 281.121 1770.67 418.435C1686.45 555.75 1538.05 643.678 1435.13 774.2C1332.22 904.721 1249 1041.74 1153.19 1201.56C1057.37 1361.39 909.053 1644.55 860.227 1733.14L1112.67 1868.05L2519.27 -381.032L2266.83 -515.941Z" fill="url(#paint9_linear_1969_9831)"/>
        <path d="M2393.22 -447.118C2349.1 -393.928 2179.36 -224.439 2128.54 -127.981C2077.72 -31.5235 2144.87 36.5925 2088.29 131.629C2031.71 226.665 1844.8 354.53 1789.06 442.235C1733.32 529.941 1819.7 568.282 1753.84 657.861C1687.97 747.439 1457.83 863.622 1393.86 979.707C1329.9 1095.79 1414.31 1283.37 1370.06 1354.37C1325.81 1425.37 1191.88 1331.33 1128.34 1405.72C1064.81 1480.1 1012.09 1734.83 988.845 1800.66L1114.9 1868.05L2519.27 -379.723L2393.22 -447.118Z" fill="url(#paint10_linear_1969_9831)"/>
        <path d="M179.284 82.9713C128.05 80.6107 29.8807 103.91 0 108.098L0 -1L1440 -1V60.5V108.098C1406.87 105.061 1299.92 95.6021 1241.22 89.8781C1182.53 84.1542 1140.32 69.4265 1087.82 73.754C1035.32 78.0815 983.081 107.111 926.209 115.843C869.337 124.575 816.302 131.443 746.591 126.145C676.88 120.848 581.141 84.7064 507.943 84.0591C434.745 83.4117 362.182 122.443 307.405 122.261C252.629 122.08 230.519 85.3319 179.284 82.9713Z" fill="white"/>
        <g clip-path="url(#clip1_1969_9831)">
            <path d="M90.8062 607.259C133.759 607.259 168.579 572.435 168.579 529.478C168.579 486.52 133.759 451.696 90.8062 451.696C47.8536 451.696 13.0337 486.52 13.0337 529.478C13.0337 572.435 47.8536 607.259 90.8062 607.259Z" fill="#67AA92"/>
            <path d="M91.0196 529.477H91.2335L95.0796 750H86.9602L91.0196 529.477Z" fill="black"/>
            <path d="M257.783 645.889C289.112 645.889 314.508 620.489 314.508 589.157C314.508 557.825 289.112 532.426 257.783 532.426C226.455 532.426 201.058 557.825 201.058 589.157C201.058 620.489 226.455 645.889 257.783 645.889Z" fill="#67AA92"/>
            <path d="M257.939 589.156H258.095L260.9 750H254.978L257.939 589.156Z" fill="black"/>
            <path d="M186.342 511.178C257.628 511.178 315.416 453.383 315.416 382.089C315.416 310.795 257.628 253 186.342 253C115.056 253 57.2676 310.795 57.2676 382.089C57.2676 453.383 115.056 511.178 186.342 511.178Z" fill="#67AA92"/>
            <path opacity="0.1" d="M281.646 295.867C293.686 324.034 295.319 355.564 286.254 384.824C277.189 414.083 258.016 439.166 232.162 455.59C206.308 472.013 175.457 478.707 145.122 474.476C114.787 470.245 86.9445 455.363 66.5703 432.491C73.9251 449.7 84.9328 465.103 98.8309 477.635C112.729 490.166 129.185 499.525 147.059 505.065C164.933 510.604 183.797 512.191 202.345 509.715C220.893 507.239 238.681 500.759 254.477 490.726C270.272 480.692 283.698 467.343 293.823 451.605C303.948 435.867 310.531 418.115 313.115 399.58C315.7 381.045 314.224 362.169 308.79 344.261C303.356 326.353 294.094 309.84 281.646 295.867Z" fill="black"/>
            <path d="M185.987 382.089H185.632L179.249 748.078H192.725L185.987 382.089Z" fill="#3F3D56"/>
            <path d="M484.84 742.779H477.966L474.696 716.263H484.841L484.84 742.779Z" fill="#FFB6B6"/>
            <path d="M486.593 749.443L464.429 749.442V749.162C464.429 746.874 465.338 744.679 466.956 743.061C468.574 741.443 470.768 740.534 473.056 740.534H473.056L486.593 740.535L486.593 749.443Z" fill="#2F2E41"/>
            <path d="M516.714 742.779H509.84L506.57 716.263H516.715L516.714 742.779Z" fill="#FFB6B6"/>
            <path d="M518.467 749.443L496.303 749.442V749.162C496.304 746.874 497.213 744.679 498.83 743.061C500.448 741.443 502.642 740.534 504.93 740.534H504.931L518.467 740.535L518.467 749.443Z" fill="#2F2E41"/>
            <path d="M401.332 742.779H408.206L409.482 716.12L401.331 716.263L401.332 742.779Z" fill="#FFB6B6"/>
            <path d="M399.579 740.535L413.116 740.534H413.116C415.404 740.534 417.598 741.443 419.216 743.061C420.834 744.679 421.743 746.873 421.743 749.162V749.442L399.579 749.443L399.579 740.535Z" fill="#2F2E41"/>
            <path d="M373.545 742.779H380.419L381.781 716.12L373.544 716.263L373.545 742.779Z" fill="#FFB6B6"/>
            <path d="M371.792 740.535L385.328 740.534H385.329C387.617 740.534 389.811 741.443 391.429 743.061C393.046 744.679 393.955 746.873 393.956 749.162V749.442L371.792 749.443L371.792 740.535Z" fill="#2F2E41"/>
            <path d="M433.052 630.434C432.794 629.768 432.685 629.055 432.733 628.343C432.782 627.632 432.985 626.939 433.33 626.315C433.674 625.69 434.151 625.149 434.728 624.729C435.304 624.309 435.966 624.02 436.666 623.883L460.134 586.15L468.065 593.198L442.502 628.072C442.654 629.263 442.364 630.469 441.686 631.46C441.008 632.452 439.991 633.16 438.826 633.451C437.661 633.742 436.43 633.596 435.365 633.04C434.301 632.484 433.478 631.556 433.052 630.434Z" fill="#FFB6B6"/>
            <path d="M540.311 644.399C539.659 644.111 539.077 643.683 538.608 643.146C538.139 642.609 537.793 641.975 537.595 641.29C537.397 640.605 537.352 639.885 537.463 639.18C537.573 638.475 537.837 637.804 538.235 637.212L528.152 593.934L538.742 593.309L545.324 636.046C546.274 636.781 546.921 637.839 547.143 639.019C547.364 640.199 547.146 641.42 546.528 642.45C545.91 643.479 544.936 644.247 543.79 644.606C542.644 644.965 541.406 644.892 540.311 644.399Z" fill="#FFB6B6"/>
            <path d="M440.503 628.572C440.476 627.775 440.274 626.995 439.912 626.285C439.551 625.575 439.038 624.953 438.41 624.463C437.782 623.972 437.054 623.626 436.278 623.447C435.501 623.268 434.695 623.262 433.916 623.429L423.88 606.865L419.566 615.958L429.758 630.293C430.125 631.584 430.952 632.695 432.083 633.416C433.214 634.137 434.571 634.418 435.895 634.206C437.22 633.993 438.42 633.303 439.269 632.264C440.119 631.226 440.557 629.912 440.503 628.572Z" fill="#FFB6B6"/>
            <path d="M356.638 645.897C357.106 645.252 357.428 644.513 357.579 643.731C357.731 642.949 357.709 642.143 357.516 641.37C357.323 640.597 356.962 639.876 356.46 639.257C355.958 638.639 355.326 638.138 354.609 637.79L356.887 618.557L347.892 623.071L347.109 640.643C346.604 641.886 346.573 643.271 347.021 644.535C347.469 645.799 348.365 646.855 349.54 647.503C350.715 648.151 352.086 648.345 353.394 648.049C354.702 647.753 355.857 646.987 356.638 645.897Z" fill="#FFB6B6"/>
            <path d="M479.391 626.414L476.476 632.336L474.18 732.96L489.178 734.059L503.252 660.261L506.647 732.96L518.981 733.078L532.323 633.93L479.391 626.414Z" fill="#2F2E41"/>
            <path d="M405.363 626.414L410.231 629.298C410.231 629.298 414.186 631.816 412.856 649.33C411.526 666.843 409.936 737.012 409.936 737.012H401.308L387.334 653.192L382.236 737.92L373.153 737.466C373.153 737.466 354.597 641.003 362.627 630.534L405.363 626.414Z" fill="#2F2E41"/>
            <path d="M478.325 553.948L494.708 548.479L514.825 548.775L528.513 554.238L532.322 633.93C532.322 633.93 502.373 651.874 476.476 632.336L478.325 553.948Z" fill="#E4E4E4"/>
            <path d="M478.325 553.246C478.325 553.246 471.861 552.489 468.258 563.218C464.656 573.947 455.129 588.462 455.129 588.462L465.55 598.235L486.393 569.325L478.325 553.246Z" fill="#E4E4E4"/>
            <path d="M523.429 555.744L528.513 554.238C528.513 554.238 540.028 555.773 540.487 568.163C540.947 580.552 543.124 599.942 543.124 599.942L531.379 602.284L523.429 555.744Z" fill="#E4E4E4"/>
            <path d="M359.688 564.434C359.688 564.434 383.36 556.823 402.458 563.919L400.895 600.762L412.675 629.502C412.675 629.502 375.223 644.031 362.742 631.821L366.382 603.033L359.688 564.434Z" fill="#E6C0C7"/>
            <path d="M396.094 568.246L401.055 563.919C401.055 563.919 404.364 563.88 407.211 568.971C410.059 574.062 415.217 590.496 415.217 590.496L431.733 618.475L424.467 623.47L398.273 586.833L396.094 568.246Z" fill="#E6C0C7"/>
            <path d="M360.567 566.251L360.905 563.942C360.905 563.942 351.682 564.625 350.902 573.513C350.121 582.401 347.269 632.554 347.269 632.554L356.392 634.371L365.467 582.896L360.567 566.251Z" fill="#E6C0C7"/>
            <path d="M506.077 541.138C514.531 541.138 521.384 534.284 521.384 525.829C521.384 517.375 514.531 510.521 506.077 510.521C497.623 510.521 490.77 517.375 490.77 525.829C490.77 534.284 497.623 541.138 506.077 541.138Z" fill="#FFB6B6"/>
            <path d="M392.541 551.119L364.87 556.568C364.301 556.68 363.711 556.561 363.229 556.237C362.747 555.914 362.413 555.413 362.301 554.844L359.952 542.915C359.539 540.816 359.543 538.656 359.964 536.559C360.386 534.461 361.216 532.467 362.408 530.691C364.815 527.103 368.548 524.618 372.787 523.784C377.026 522.949 381.423 523.832 385.01 526.24C388.598 528.647 391.082 532.381 391.917 536.62L394.265 548.549C394.377 549.118 394.258 549.708 393.935 550.19C393.611 550.672 393.11 551.006 392.541 551.119Z" fill="#2F2E41"/>
            <path d="M379.628 553.144C386.224 553.144 391.571 547.796 391.571 541.2C391.571 534.603 386.224 529.256 379.628 529.256C373.032 529.256 367.685 534.603 367.685 541.2C367.685 547.796 373.032 553.144 379.628 553.144Z" fill="#FFB6B6"/>
            <path d="M395.932 537.068L379.012 540.4L378.36 538.005L377.971 540.605L375.366 541.118L374.074 536.371L373.303 541.525L368.261 542.517L368.214 542.279C367.558 538.926 368.259 535.449 370.162 532.612C372.065 529.775 375.016 527.809 378.368 527.145L380.753 526.675C384.106 526.019 387.582 526.719 390.419 528.623C393.256 530.526 395.222 533.478 395.885 536.829L395.932 537.068Z" fill="#2F2E41"/>
            <path d="M381.849 555.538C381.722 555.563 381.592 555.576 381.462 555.579L368.642 555.833L364.61 535.354L378.249 532.668L377.989 533.128C374.37 539.533 379.658 547.721 383.133 552.032C383.389 552.348 383.55 552.729 383.599 553.132C383.647 553.535 383.581 553.944 383.407 554.311C383.263 554.624 383.047 554.899 382.776 555.112C382.505 555.325 382.187 555.471 381.849 555.538Z" fill="#2F2E41"/>
            <path d="M491.182 512.029C493.052 511.452 495.075 511.738 496.985 512.166L496.802 512.63C501.364 509.986 506.794 508.523 511.968 509.536C517.143 510.549 521.912 514.362 523.164 519.485C523.619 521.532 523.647 523.651 523.246 525.709C522.699 528.733 521.52 531.607 519.787 534.144C518.053 536.681 515.804 538.823 513.186 540.432C512.531 540.829 511.519 541.112 511.132 540.451C510.692 539.7 511.685 538.937 511.981 538.118C512.305 537.222 511.716 536.228 510.95 535.661C510.184 535.094 509.25 534.8 508.449 534.284C507.65 533.706 506.98 532.968 506.482 532.117C505.983 531.267 505.667 530.322 505.553 529.342C505.338 527.384 505.398 525.405 505.732 523.464C502.656 524.59 499.419 525.212 496.145 525.307C494.985 525.414 493.817 525.229 492.747 524.77C491.373 524.069 490.544 522.648 489.792 521.301C489.476 520.737 489.161 520.173 488.846 519.609C488.166 518.6 487.753 517.434 487.647 516.221C487.647 514.263 489.311 512.605 491.182 512.029Z" fill="#2F2E41"/>
        </g>
    </g>
    <defs>
        <linearGradient id="paint0_linear_1969_9831" x1="1192.43" y1="-1102.28" x2="-435.89" y2="1042.34" gradientUnits="userSpaceOnUse">
            <stop stop-color="#F8F4F1"/>
        </linearGradient>
        <linearGradient id="paint1_linear_1969_9831" x1="1359.78" y1="-1011.55" x2="-311.745" y2="1088.26" gradientUnits="userSpaceOnUse">
            <stop stop-color="#F8F1F1"/>
            <stop offset="0.0909091" stop-color="#F8F1F2"/>
        </linearGradient>
        <linearGradient id="paint2_linear_1969_9831" x1="1411.64" y1="-983.396" x2="-275.391" y2="1099.44" gradientUnits="userSpaceOnUse">
            <stop stop-color="#F8F1F5"/>
            <stop offset="0.181818" stop-color="#F8F1F6"/>
        </linearGradient>
        <linearGradient id="paint3_linear_1969_9831" x1="1533.24" y1="-917.333" x2="-194.991" y2="1117.78" gradientUnits="userSpaceOnUse">
            <stop stop-color="#F8F1F8"/>
            <stop offset="0.272727" stop-color="#F7F1F8"/>
        </linearGradient>
        <linearGradient id="paint4_linear_1969_9831" x1="1656.06" y1="-850.505" x2="-122.023" y2="1120.91" gradientUnits="userSpaceOnUse">
            <stop stop-color="#F4F1F8"/>
            <stop offset="0.363636" stop-color="#F3F1F8"/>
        </linearGradient>
        <linearGradient id="paint5_linear_1969_9831" x1="1787.83" y1="-778.671" x2="-54.9559" y2="1097.5" gradientUnits="userSpaceOnUse">
            <stop stop-color="#F1F2F8"/>
            <stop offset="0.454545" stop-color="#F1F3F8"/>
        </linearGradient>
        <linearGradient id="paint6_linear_1969_9831" x1="1896.13" y1="-719.506" x2="-9.35078" y2="1044.9" gradientUnits="userSpaceOnUse">
            <stop stop-color="#F1F6F8"/>
            <stop offset="0.545455" stop-color="#F1F7F8"/>
        </linearGradient>
        <linearGradient id="paint7_linear_1969_9831" x1="1993.11" y1="-666.418" x2="25.9754" y2="956.227" gradientUnits="userSpaceOnUse">
            <stop stop-color="#F1F8F6"/>
            <stop offset="0.636364" stop-color="#F1F8F5"/>
        </linearGradient>
        <linearGradient id="paint8_linear_1969_9831" x1="2141.19" y1="-585.128" x2="94.258" y2="685.828" gradientUnits="userSpaceOnUse">
            <stop stop-color="#F1F8F2"/>
            <stop offset="0.727273" stop-color="#F1F8F1"/>
        </linearGradient>
        <linearGradient id="paint9_linear_1969_9831" x1="2263.55" y1="-517.696" x2="267.313" y2="242.523" gradientUnits="userSpaceOnUse">
            <stop stop-color="#F3F8F1"/>
            <stop offset="0.818182" stop-color="#F4F8F1"/>
        </linearGradient>
        <linearGradient id="paint10_linear_1969_9831" x1="2332.22" y1="-479.731" x2="530.782" y2="-118.25" gradientUnits="userSpaceOnUse">
            <stop stop-color="#F7F8F1"/>
            <stop offset="0.909091" stop-color="#F8F8F1"/>
        </linearGradient>
        <clipPath id="clip0_1969_9831">
            <rect width="1440" height="751" fill="white"/>
        </clipPath>
        <clipPath id="clip1_1969_9831">
            <rect width="576" height="497" fill="white" transform="translate(10 253)"/>
        </clipPath>
    </defs>
</svg>
