<svg width="375" height="251" viewBox="0 0 375 251" fill="none" xmlns="http://www.w3.org/2000/svg">
    <path d="M375 0H0V251H375V0Z" fill="#F8F5F1"/>
    <path d="M277.735 -380.766C267.644 -364.206 239.59 -317.974 217.19 -281.408C194.789 -244.841 163.119 -205.407 143.332 -161.368C123.545 -117.328 113.102 -58.4427 98.4688 -17.1711C83.8359 24.1005 78.5575 44.1683 55.535 86.2619C32.5124 128.356 -16.903 193.288 -39.6665 235.391C-62.4299 277.493 -74.1493 321.628 -81.0458 338.875L297.279 624.344L656.06 -95.297L277.735 -380.766Z" fill="url(#paint0_linear_633_1591)"/>
    <path d="M311.599 -358.593C306.036 -338.618 295.024 -272.431 278.225 -238.743C261.427 -205.056 229.714 -185.414 210.81 -156.468C191.905 -127.522 179.966 -105.996 164.8 -65.0696C149.635 -24.1431 135.773 47.845 119.818 89.0915C103.862 130.338 88.953 151.124 69.0679 182.41C49.1829 213.695 19.8988 246.528 0.507157 276.803C-18.8845 307.079 -39.317 349.52 -47.2819 364.063L297.181 624.343L656.061 -98.3131L311.599 -358.593Z" fill="url(#paint1_linear_633_1591)"/>
    <path d="M345.859 -333.76C337.991 -320.902 311.675 -291.999 298.654 -256.611C285.632 -221.223 282.047 -157.785 267.729 -121.432C253.412 -85.0793 232.361 -60.6624 212.749 -38.4952C193.138 -16.328 162.291 -11.862 150.059 11.5713C137.826 35.0047 148.564 67.0268 139.357 102.105C130.15 137.183 116.607 191.503 94.8182 222.04C73.0295 252.577 26.6015 257.351 8.62454 285.326C-9.35244 313.302 -9.43219 372.463 -13.0435 389.891L297.158 624.343L656.061 -99.3074L345.859 -333.76Z" fill="url(#paint2_linear_633_1591)"/>
    <path d="M379.857 -310.54C370.348 -294.043 339.909 -255.381 322.8 -211.555C305.692 -167.728 294.727 -93.33 277.206 -47.5819C259.686 -1.83389 244.918 25.4145 217.679 62.9335C190.44 100.453 140.408 138.612 113.773 177.532C87.1387 216.452 73.3467 256.78 57.8706 296.451C42.3946 336.122 27.076 395.705 20.9171 415.556L297.119 624.344L656.059 -101.753L379.857 -310.54Z" fill="url(#paint3_linear_633_1591)"/>
    <path d="M413.841 -287.364C406.47 -268.154 386.136 -206.98 369.619 -172.106C353.102 -137.232 333.018 -114.863 314.739 -78.1202C296.461 -41.3772 282.451 12.5979 259.948 48.3524C237.444 84.1069 194.007 106.355 179.72 136.407C165.434 166.459 186.593 196.168 174.229 228.666C161.864 261.165 125.425 295.946 105.533 331.397C85.6409 366.847 63.3186 423.041 54.8757 441.37L297.095 624.343L656.06 -104.391L413.841 -287.364Z" fill="url(#paint4_linear_633_1591)"/>
    <path d="M447.773 -264.422C440.403 -250.744 418.633 -218.693 403.549 -182.349C388.466 -146.006 379.455 -86.644 357.272 -46.3612C335.088 -6.07828 291.02 22.9024 270.446 59.3479C249.872 95.7935 249.999 137.968 233.828 172.312C217.657 206.657 183.879 234.264 173.419 265.415C162.959 296.567 185.175 325.568 171.068 359.22C156.962 392.873 102.494 449.313 88.7797 467.332L297.066 624.344L656.06 -107.41L447.773 -264.422Z" fill="url(#paint5_linear_633_1591)"/>
    <path d="M481.875 -240.921C473.829 -218.264 452.129 -135.751 433.599 -104.975C415.069 -74.1996 387.675 -82.7953 370.692 -56.2682C353.709 -29.741 345.178 14.9614 331.701 54.1878C318.224 93.4142 309.293 140.22 289.828 179.09C270.364 217.961 235.234 255.28 214.915 287.41C194.596 319.54 183.262 337.529 167.915 371.87C152.568 406.211 130.346 473.191 122.833 493.455L297.016 624.343L656.059 -110.033L481.875 -240.921Z" fill="url(#paint6_linear_633_1591)"/>
    <path d="M516.147 -217.154C504.308 -202.795 467.705 -173.866 445.112 -131.001C422.518 -88.1351 395.145 -4.51278 380.585 40.0394C366.024 84.5916 372.79 93.8613 357.748 136.312C342.706 178.764 309.295 252.169 290.333 294.746C271.37 337.323 266.195 354.285 243.975 391.772C221.755 429.26 171.506 498.353 157.012 519.669L296.926 624.343L656.061 -112.48L516.147 -217.154Z" fill="url(#paint7_linear_633_1591)"/>
    <path d="M550.225 -194.674C535.791 -168.264 490.713 -95.3392 463.62 -36.2167C436.528 22.9058 419.599 96.1802 387.668 160.061C355.737 223.942 304.851 282.744 272.034 347.07C239.216 411.395 204.307 512.858 190.762 546.015L296.596 624.342L656.059 -116.346L550.225 -194.674Z" fill="url(#paint8_linear_633_1591)"/>
    <path d="M584.784 -171.57C570.745 -145.993 521.427 -69.9422 500.549 -18.1106C479.671 33.721 481.044 93.9649 459.517 139.42C437.991 184.875 398.155 211.914 371.389 254.62C344.624 297.326 323.371 342.701 298.925 395.656C274.479 448.61 237.081 542.899 224.712 572.348L295.989 624.344L656.06 -119.574L584.784 -171.57Z" fill="url(#paint9_linear_633_1591)"/>
    <path d="M620.156 -147.246C608.599 -129.83 563.667 -74.9476 550.814 -42.7493C537.962 -10.551 557.512 14.3571 543.041 45.9438C528.57 77.5305 478.323 117.695 463.988 146.771C449.654 175.847 474.156 190.891 457.033 220.399C439.91 249.908 377.498 285.132 361.252 323.823C345.006 362.514 370.92 428.988 359.557 452.545C348.195 476.102 309.753 440.847 293.079 465.163C276.404 489.48 265.104 576.23 259.509 598.443L295.414 624.343L656.061 -121.346L620.156 -147.246Z" fill="url(#paint10_linear_633_1591)"/>
    <path d="M179.284 59.4712C128.05 57.1106 29.8807 80.4097 0 84.5974L0 0L375 0V86.7558C350.597 93.4751 327.772 98.8285 307.405 98.7611C252.629 98.5798 230.519 61.8318 179.284 59.4712Z" fill="white"/>
    <g clip-path="url(#clip0_633_1591)">
        <path d="M340.799 215.387C330.061 215.387 321.356 206.698 321.356 195.98C321.356 185.263 330.061 176.574 340.799 176.574C351.537 176.574 360.242 185.263 360.242 195.98C360.242 206.698 351.537 215.387 340.799 215.387Z" fill="#67AA92"/>
        <path d="M340.745 195.98H340.691L339.73 251H341.76L340.745 195.98Z" fill="black"/>
        <path d="M299.055 225.025C291.223 225.025 284.874 218.687 284.874 210.87C284.874 203.053 291.223 196.716 299.055 196.716C306.887 196.716 313.236 203.053 313.236 210.87C313.236 218.687 306.887 225.025 299.055 225.025Z" fill="#67AA92"/>
        <path d="M299.016 210.87H298.977L298.275 251H299.756L299.016 210.87Z" fill="black"/>
        <path d="M316.915 191.415C299.094 191.415 284.646 176.995 284.646 159.207C284.646 141.42 299.094 127 316.915 127C334.736 127 349.184 141.42 349.184 159.207C349.184 176.995 334.736 191.415 316.915 191.415Z" fill="#67AA92"/>
        <path opacity="0.1" d="M293.088 137.695C290.079 144.723 289.67 152.589 291.936 159.89C294.203 167.19 298.996 173.448 305.459 177.546C311.923 181.643 319.636 183.313 327.22 182.258C334.803 181.202 341.764 177.489 346.857 171.783C345.019 176.076 342.267 179.919 338.792 183.046C335.318 186.172 331.204 188.507 326.735 189.889C322.267 191.272 317.551 191.667 312.914 191.05C308.277 190.432 303.83 188.815 299.881 186.312C295.932 183.808 292.576 180.478 290.044 176.551C287.513 172.625 285.867 168.196 285.221 163.571C284.575 158.947 284.944 154.237 286.302 149.769C287.661 145.301 289.976 141.182 293.088 137.695Z" fill="black"/>
        <path d="M317.003 159.207H317.092L318.688 250.52H315.319L317.003 159.207Z" fill="#3F3D56"/>
        <path d="M242.29 249.199H244.009L244.826 242.583H242.29L242.29 249.199Z" fill="#FFB6B6"/>
        <path d="M241.852 250.861L247.393 250.861V250.791C247.393 250.22 247.165 249.673 246.761 249.269C246.356 248.865 245.808 248.639 245.236 248.639H245.236L241.852 248.639L241.852 250.861Z" fill="#2F2E41"/>
        <path d="M234.322 249.199H236.04L236.857 242.583H234.321L234.322 249.199Z" fill="#FFB6B6"/>
        <path d="M233.883 250.861L239.424 250.861V250.791C239.424 250.22 239.197 249.673 238.792 249.269C238.388 248.865 237.839 248.639 237.267 248.639H237.267L233.883 248.639L233.883 250.861Z" fill="#2F2E41"/>
        <path d="M263.166 249.198H261.447L261.128 242.547L263.166 242.583L263.166 249.198Z" fill="#FFB6B6"/>
        <path d="M263.605 248.638L260.221 248.638H260.221C259.649 248.638 259.101 248.865 258.696 249.268C258.292 249.672 258.065 250.219 258.064 250.79V250.86L263.605 250.86L263.605 248.638Z" fill="#2F2E41"/>
        <path d="M270.115 249.198H268.397L268.056 242.547L270.115 242.583L270.115 249.198Z" fill="#FFB6B6"/>
        <path d="M270.553 248.638L267.169 248.638H267.168C266.596 248.638 266.048 248.865 265.643 249.268C265.239 249.672 265.012 250.219 265.012 250.79V250.86L270.553 250.86L270.553 248.638Z" fill="#2F2E41"/>
        <path d="M255.238 221.169C255.302 221.003 255.33 220.825 255.318 220.647C255.306 220.47 255.255 220.297 255.169 220.141C255.082 219.985 254.963 219.85 254.819 219.745C254.675 219.641 254.51 219.569 254.335 219.534L248.467 210.12L246.485 211.878L252.875 220.579C252.837 220.877 252.91 221.177 253.079 221.425C253.249 221.672 253.503 221.849 253.794 221.922C254.086 221.994 254.394 221.958 254.66 221.819C254.926 221.68 255.131 221.449 255.238 221.169Z" fill="#FFB6B6"/>
        <path d="M228.421 224.653C228.584 224.581 228.73 224.475 228.847 224.341C228.964 224.207 229.051 224.048 229.1 223.878C229.15 223.707 229.161 223.527 229.133 223.351C229.106 223.175 229.04 223.008 228.94 222.86L231.461 212.062L228.813 211.906L227.168 222.569C226.93 222.752 226.769 223.016 226.713 223.311C226.658 223.605 226.713 223.91 226.867 224.167C227.021 224.424 227.265 224.615 227.551 224.705C227.838 224.794 228.147 224.776 228.421 224.653Z" fill="#FFB6B6"/>
        <path d="M253.375 220.704C253.382 220.505 253.432 220.31 253.523 220.133C253.613 219.956 253.742 219.801 253.898 219.679C254.055 219.556 254.237 219.47 254.432 219.425C254.626 219.381 254.827 219.379 255.022 219.421L257.531 215.288L258.609 217.557L256.061 221.133C255.97 221.455 255.763 221.732 255.48 221.912C255.197 222.092 254.858 222.162 254.527 222.109C254.196 222.056 253.896 221.884 253.684 221.625C253.471 221.366 253.362 221.038 253.375 220.704Z" fill="#FFB6B6"/>
        <path d="M274.341 225.026C274.224 224.866 274.144 224.681 274.106 224.486C274.068 224.291 274.073 224.09 274.122 223.897C274.17 223.704 274.26 223.524 274.386 223.37C274.511 223.215 274.669 223.091 274.848 223.004L274.279 218.205L276.528 219.331L276.724 223.716C276.85 224.026 276.858 224.371 276.746 224.687C276.633 225.002 276.409 225.266 276.116 225.427C275.822 225.589 275.479 225.637 275.152 225.563C274.825 225.489 274.537 225.298 274.341 225.026Z" fill="#FFB6B6"/>
        <path d="M243.652 220.166L244.381 221.644L244.955 246.749L241.206 247.023L237.687 228.611L236.838 246.749L233.755 246.778L230.419 222.041L243.652 220.166Z" fill="#2F2E41"/>
        <path d="M262.16 220.166L260.943 220.886C260.943 220.886 259.954 221.514 260.287 225.883C260.619 230.253 261.016 247.76 261.016 247.76H263.173L266.667 226.847L267.942 247.986L270.212 247.873C270.212 247.873 274.851 223.806 272.844 221.194L262.16 220.166Z" fill="#2F2E41"/>
        <path d="M243.919 202.086L239.823 200.722L234.793 200.795L231.372 202.158L230.419 222.041C230.419 222.041 237.907 226.518 244.381 221.644L243.919 202.086Z" fill="#E4E4E4"/>
        <path d="M243.92 201.91C243.92 201.91 245.536 201.721 246.436 204.398C247.337 207.075 249.719 210.696 249.719 210.696L247.113 213.135L241.903 205.922L243.92 201.91Z" fill="#E4E4E4"/>
        <path d="M232.643 202.534L231.372 202.158C231.372 202.158 228.493 202.541 228.378 205.632C228.263 208.724 227.719 213.561 227.719 213.561L230.655 214.145L232.643 202.534Z" fill="#E4E4E4"/>
        <path d="M273.578 204.702C273.578 204.702 267.66 202.803 262.886 204.573L263.277 213.766L260.331 220.936C260.331 220.936 269.694 224.561 272.815 221.514L271.905 214.332L273.578 204.702Z" fill="#E6C0C7"/>
        <path d="M264.477 205.653L263.236 204.573C263.236 204.573 262.409 204.563 261.697 205.834C260.986 207.104 259.696 211.204 259.696 211.204L255.567 218.185L257.383 219.431L263.932 210.29L264.477 205.653Z" fill="#E6C0C7"/>
        <path d="M273.359 205.155L273.275 204.579C273.275 204.579 275.58 204.749 275.775 206.967C275.97 209.184 276.684 221.697 276.684 221.697L274.403 222.151L272.134 209.308L273.359 205.155Z" fill="#E6C0C7"/>
        <path d="M236.98 198.89C234.866 198.89 233.153 197.18 233.153 195.071C233.153 192.961 234.866 191.251 236.98 191.251C239.093 191.251 240.807 192.961 240.807 195.071C240.807 197.18 239.093 198.89 236.98 198.89Z" fill="#FFB6B6"/>
        <path d="M265.364 201.38L272.282 202.74C272.424 202.767 272.572 202.738 272.692 202.657C272.812 202.576 272.896 202.451 272.924 202.309L273.511 199.333C273.614 198.81 273.613 198.271 273.508 197.747C273.403 197.224 273.195 196.727 272.897 196.283C272.295 195.388 271.362 194.768 270.302 194.56C269.243 194.352 268.143 194.572 267.247 195.173C266.35 195.773 265.729 196.705 265.52 197.763L264.933 200.739C264.905 200.881 264.935 201.028 265.016 201.148C265.096 201.269 265.222 201.352 265.364 201.38Z" fill="#2F2E41"/>
        <path d="M268.592 201.885C266.944 201.885 265.607 200.551 265.607 198.905C265.607 197.259 266.944 195.925 268.592 195.925C270.241 195.925 271.578 197.259 271.578 198.905C271.578 200.551 270.241 201.885 268.592 201.885Z" fill="#FFB6B6"/>
        <path d="M264.516 197.875L268.746 198.706L268.909 198.108L269.007 198.757L269.658 198.885L269.981 197.701L270.174 198.987L271.434 199.234L271.446 199.175C271.61 198.338 271.435 197.471 270.959 196.763C270.483 196.055 269.745 195.564 268.908 195.399L268.311 195.282C267.473 195.118 266.604 195.293 265.895 195.768C265.185 196.243 264.694 196.979 264.528 197.815L264.516 197.875Z" fill="#2F2E41"/>
        <path d="M268.038 202.482C268.07 202.489 268.102 202.492 268.135 202.493L271.34 202.556L272.348 197.447L268.938 196.776L269.003 196.891C269.908 198.489 268.586 200.532 267.717 201.608C267.653 201.686 267.613 201.782 267.601 201.882C267.588 201.983 267.605 202.085 267.648 202.176C267.684 202.254 267.739 202.323 267.806 202.376C267.874 202.429 267.953 202.466 268.038 202.482Z" fill="#2F2E41"/>
        <path d="M240.704 191.627C240.237 191.483 239.731 191.555 239.253 191.661L239.299 191.777C238.159 191.118 236.801 190.753 235.508 191.005C234.214 191.258 233.022 192.21 232.709 193.488C232.595 193.998 232.588 194.527 232.688 195.041C232.825 195.795 233.12 196.512 233.553 197.145C233.986 197.778 234.549 198.312 235.203 198.714C235.367 198.813 235.62 198.884 235.717 198.719C235.827 198.531 235.578 198.341 235.504 198.137C235.423 197.913 235.571 197.665 235.762 197.524C235.954 197.382 236.187 197.309 236.387 197.18C236.587 197.036 236.755 196.852 236.879 196.639C237.004 196.427 237.083 196.191 237.111 195.947C237.165 195.458 237.15 194.965 237.067 194.48C237.836 194.761 238.645 194.917 239.463 194.94C239.753 194.967 240.045 194.921 240.313 194.806C240.656 194.631 240.864 194.277 241.052 193.941C241.131 193.8 241.209 193.659 241.288 193.519C241.458 193.267 241.561 192.976 241.588 192.673C241.588 192.185 241.172 191.771 240.704 191.627Z" fill="#2F2E41"/>
    </g>
    <defs>
        <linearGradient id="paint0_linear_633_1591" x1="299.035" y1="-364.694" x2="-250.604" y2="169.434" gradientUnits="userSpaceOnUse">
            <stop stop-color="#F8F4F1"/>
        </linearGradient>
        <linearGradient id="paint1_linear_633_1591" x1="343.173" y1="-334.735" x2="-215.047" y2="184.835" gradientUnits="userSpaceOnUse">
            <stop stop-color="#F8F1F1"/>
            <stop offset="0.0909091" stop-color="#F8F1F2"/>
        </linearGradient>
        <linearGradient id="paint2_linear_633_1591" x1="356.858" y1="-325.447" x2="-204.235" y2="188.708" gradientUnits="userSpaceOnUse">
            <stop stop-color="#F8F1F5"/>
            <stop offset="0.181818" stop-color="#F8F1F6"/>
        </linearGradient>
        <linearGradient id="paint3_linear_633_1591" x1="388.957" y1="-303.661" x2="-179.275" y2="195.556" gradientUnits="userSpaceOnUse">
            <stop stop-color="#F8F1F8"/>
            <stop offset="0.272727" stop-color="#F7F1F8"/>
        </linearGradient>
        <linearGradient id="paint4_linear_633_1591" x1="421.414" y1="-281.643" x2="-154.545" y2="198.261" gradientUnits="userSpaceOnUse">
            <stop stop-color="#F4F1F8"/>
            <stop offset="0.363636" stop-color="#F3F1F8"/>
        </linearGradient>
        <linearGradient id="paint5_linear_633_1591" x1="456.297" y1="-257.997" x2="-128.217" y2="194.213" gradientUnits="userSpaceOnUse">
            <stop stop-color="#F1F2F8"/>
            <stop offset="0.454545" stop-color="#F1F3F8"/>
        </linearGradient>
        <linearGradient id="paint6_linear_633_1591" x1="485.046" y1="-238.538" x2="-105.993" y2="182.72" gradientUnits="userSpaceOnUse">
            <stop stop-color="#F1F6F8"/>
            <stop offset="0.545455" stop-color="#F1F7F8"/>
        </linearGradient>
        <linearGradient id="paint7_linear_633_1591" x1="510.886" y1="-221.09" x2="-84.2484" y2="162.863" gradientUnits="userSpaceOnUse">
            <stop stop-color="#F1F8F6"/>
            <stop offset="0.636364" stop-color="#F1F8F5"/>
        </linearGradient>
        <linearGradient id="paint8_linear_633_1591" x1="550.609" y1="-194.389" x2="-39.7134" y2="103.816" gradientUnits="userSpaceOnUse">
            <stop stop-color="#F1F8F2"/>
            <stop offset="0.727273" stop-color="#F1F8F1"/>
        </linearGradient>
        <linearGradient id="paint9_linear_633_1591" x1="583.857" y1="-172.246" x2="31.3689" y2="11.5571" gradientUnits="userSpaceOnUse">
            <stop stop-color="#F3F8F1"/>
            <stop offset="0.818182" stop-color="#F4F8F1"/>
        </linearGradient>
        <linearGradient id="paint10_linear_633_1591" x1="602.781" y1="-159.779" x2="109.16" y2="-62.3993" gradientUnits="userSpaceOnUse">
            <stop stop-color="#F7F8F1"/>
            <stop offset="0.909091" stop-color="#F8F8F1"/>
        </linearGradient>
        <clipPath id="clip0_633_1591">
            <rect width="144" height="124" fill="white" transform="matrix(-1 0 0 1 361 127)"/>
        </clipPath>
    </defs>
</svg>
