<svg width="40" height="41" viewBox="0 0 40 41" fill="none" xmlns="http://www.w3.org/2000/svg">
    <path d="M20.3853 15.5501C17.4474 15.5501 15.0498 17.9478 15.0498 20.8857C15.0498 23.8237 17.4474 26.2213 20.3853 26.2213C23.3233 26.2213 25.7209 23.8237 25.7209 20.8857C25.7209 17.9478 23.3233 15.5501 20.3853 15.5501ZM36.3879 20.8857C36.3879 18.6762 36.4079 16.4868 36.2838 14.2813C36.1597 11.7195 35.5753 9.44601 33.7021 7.57275C31.8249 5.69548 29.5554 5.11509 26.9937 4.991C24.7842 4.86692 22.5948 4.88693 20.3893 4.88693C18.1799 4.88693 15.9905 4.86692 13.785 4.991C11.2233 5.11509 8.94983 5.69948 7.0766 7.57275C5.19937 9.45002 4.61899 11.7195 4.49491 14.2813C4.37083 16.4908 4.39084 18.6803 4.39084 20.8857C4.39084 23.0912 4.37083 25.2847 4.49491 27.4902C4.61899 30.0519 5.20337 32.3255 7.0766 34.1987C8.95384 36.076 11.2233 36.6564 13.785 36.7805C15.9945 36.9046 18.1839 36.8846 20.3893 36.8846C22.5988 36.8846 24.7882 36.9046 26.9937 36.7805C29.5554 36.6564 31.8289 36.072 33.7021 34.1987C35.5793 32.3215 36.1597 30.0519 36.2838 27.4902C36.4119 25.2847 36.3879 23.0952 36.3879 20.8857ZM20.3853 29.0953C15.8424 29.0953 12.176 25.4288 12.176 20.8857C12.176 16.3427 15.8424 12.6762 20.3853 12.6762C24.9283 12.6762 28.5947 16.3427 28.5947 20.8857C28.5947 25.4288 24.9283 29.0953 20.3853 29.0953ZM28.931 14.2573C27.8703 14.2573 27.0137 13.4007 27.0137 12.34C27.0137 11.2793 27.8703 10.4227 28.931 10.4227C29.9917 10.4227 30.8482 11.2793 30.8482 12.34C30.8485 12.5918 30.7992 12.8413 30.7029 13.0741C30.6067 13.3068 30.4655 13.5183 30.2874 13.6964C30.1093 13.8745 29.8978 14.0157 29.665 14.112C29.4323 14.2082 29.1828 14.2576 28.931 14.2573Z" fill="black"/>
</svg>
