<svg width="36" height="28" viewBox="0 0 36 28" fill="none" xmlns="http://www.w3.org/2000/svg">
    <path d="M36 7.27029V22.6208C36 24.0488 35.4074 25.4184 34.3525 26.4283C33.2976 27.4381 31.8668 28.0054 30.375 28.0054H5.625C4.13316 28.0054 2.70242 27.4381 1.64752 26.4283C0.592632 25.4184 0 24.0488 0 22.6208V7.27029L17.4285 17.0875C17.6016 17.1853 17.799 17.2368 18 17.2368C18.201 17.2368 18.3984 17.1853 18.5715 17.0875L36 7.27029ZM30.375 0.00537116C31.7591 0.00516278 33.0947 0.493447 34.1262 1.37681C35.1578 2.26017 35.8129 3.4766 35.9663 4.79337L18 14.91L0.0337502 4.79337C0.187106 3.4766 0.842229 2.26017 1.87379 1.37681C2.90535 0.493447 4.24092 0.00516278 5.625 0.00537116H30.375Z" fill="black"/>
</svg>
