<svg width="40" height="40" viewBox="0 0 40 40" fill="none" xmlns="http://www.w3.org/2000/svg">
    <path d="M39.2652 31.3384L30.1378 23.0396C29.7064 22.6475 29.1394 22.4383 28.5566 22.4563C27.9739 22.4743 27.4209 22.7181 27.0145 23.1362L21.6414 28.6619C20.348 28.4149 17.7479 27.6044 15.0715 24.9347C12.395 22.256 11.5844 19.6491 11.3442 18.3648L16.8655 12.9895C17.2841 12.5834 17.5282 12.0303 17.5462 11.4474C17.5642 10.8645 17.3547 10.2974 16.9621 9.86621L8.66546 0.741151C8.27262 0.308601 7.72663 0.0462281 7.14345 0.00975352C6.56028 -0.026721 5.98585 0.165577 5.54217 0.545807L0.66975 4.72438C0.281552 5.11398 0.0498503 5.63251 0.0185959 6.1816C-0.0150844 6.74294 -0.657257 20.0398 9.65342 30.3549C18.6483 39.3475 29.9155 40.0054 33.0186 40.0054C33.4722 40.0054 33.7506 39.9919 33.8247 39.9874C34.3737 39.9567 34.892 39.7239 35.2797 39.334L39.456 34.4594C39.8378 34.0171 40.0315 33.4432 39.9958 32.86C39.9602 32.2769 39.698 31.7308 39.2652 31.3384Z" fill="black"/>
</svg>
