<svg width="33" height="29" viewBox="0 0 33 29" fill="none" xmlns="http://www.w3.org/2000/svg">
    <path d="M33 3.81594C31.7864 4.3772 30.4828 4.75643 29.1123 4.92784C30.5264 4.04468 31.5843 2.65469 32.0887 1.01723C30.7601 1.8409 29.3061 2.42068 27.7897 2.73135C26.77 1.59497 25.4194 0.841766 23.9475 0.588666C22.4756 0.335566 20.9649 0.596732 19.6498 1.33162C18.3347 2.0665 17.2889 3.23399 16.6746 4.65283C16.0604 6.07166 15.9122 7.66246 16.2529 9.17823C13.5609 9.03715 10.9273 8.30684 8.52312 7.03469C6.11897 5.76254 3.99796 3.97698 2.29776 1.79389C1.71642 2.84056 1.38215 4.0541 1.38215 5.34651C1.3815 6.50997 1.65601 7.65562 2.18132 8.6818C2.70663 9.70797 3.4665 10.583 4.39351 11.2291C3.31842 11.1934 2.26706 10.8902 1.32692 10.3447V10.4358C1.32681 12.0676 1.86762 13.6492 2.85757 14.9122C3.84753 16.1752 5.22566 17.0418 6.75813 17.365C5.76081 17.6467 4.71519 17.6882 3.70026 17.4864C4.13263 18.8904 4.97485 20.1183 6.10901 20.9979C7.24317 21.8776 8.61249 22.365 10.0253 22.3921C7.62699 24.3571 4.66512 25.423 1.61614 25.4183C1.07604 25.4185 0.536401 25.3855 0 25.3197C3.0949 27.3966 6.69758 28.4989 10.377 28.4946C22.8323 28.4946 29.6413 17.7276 29.6413 8.38944C29.6413 8.08605 29.634 7.77964 29.6209 7.47625C30.9454 6.47657 32.0886 5.23865 32.9971 3.82049L33 3.81594Z" fill="black"/>
</svg>
