<svg width="40" height="41" viewBox="0 0 40 41" fill="none" xmlns="http://www.w3.org/2000/svg">
    <path d="M32.1123 13.4824C31.8844 13.4368 31.7135 13.414 31.5996 13.414C30.7565 13.414 30.0273 13.6991 29.4121 14.2693C28.0221 13.6535 26.7233 13.1517 25.5156 12.7639C23.5332 12.1253 21.4596 11.6007 19.2949 11.1901C19.0898 10.6427 18.7822 10.1865 18.3721 9.8216C18.9417 7.13017 19.7051 4.68964 20.6621 2.5C23.5332 2.70528 26.1707 3.5378 28.5747 4.99756C30.9787 6.45731 32.9212 8.37325 34.4023 10.7454C33.5592 11.6577 32.7959 12.5701 32.1123 13.4824ZM16.2529 9.0347C15.6605 9.0347 15.1022 9.19436 14.5781 9.51369C12.7324 8.14516 10.8753 6.98192 9.00684 6.02395C11.8324 3.87993 14.9997 2.70528 18.5088 2.5C17.6201 4.48436 16.9023 6.66259 16.3555 9.0347H16.2529ZM4.39258 11.1559C5.16732 9.85582 6.14714 8.62414 7.33203 7.4609C8.88151 8.2592 10.488 9.23998 12.1514 10.4032C9.21191 10.3348 6.62565 10.5857 4.39258 11.1559ZM12.9717 12.5244C13.0173 13.2315 13.2622 13.853 13.7065 14.3891C14.1509 14.9251 14.7035 15.2843 15.3643 15.4668C15.2275 17.0634 15.1592 18.5802 15.1592 20.0171C15.1592 21.0207 15.1934 22.1725 15.2617 23.4726C14.7604 23.6323 14.3161 23.906 13.9287 24.2937C12.6982 23.8148 11.5133 23.2674 10.374 22.6515C10.6247 22.1497 10.75 21.6365 10.75 21.1119C10.75 20.1996 10.431 19.4241 9.79297 18.7854C9.15495 18.1468 8.38021 17.8275 7.46875 17.8275C6.46615 17.8275 5.63444 18.2152 4.97363 18.9907C4.0166 18.124 3.16211 17.223 2.41016 16.2879C2.61523 15.3071 2.92285 14.3377 3.33301 13.3798C6.11296 12.6043 9.32585 12.3192 12.9717 12.5244ZM4.22168 21.3856C4.29004 22.2296 4.63753 22.9423 5.26416 23.5239C5.89079 24.1056 6.62565 24.3964 7.46875 24.3964C7.7194 24.3964 7.99284 24.3508 8.28906 24.2595C9.7474 25.1035 11.3083 25.8333 12.9717 26.4492V26.586C12.9717 27.4756 13.2736 28.234 13.8774 28.8612C14.4813 29.4884 15.2275 29.8249 16.1162 29.8705C16.6859 32.6531 17.4834 35.1963 18.5088 37.5C16.2301 37.3631 14.0768 36.81 12.0488 35.8407C10.0208 34.8713 8.27197 33.6111 6.80225 32.0601C5.33252 30.5091 4.16471 28.6844 3.29883 26.586C2.43294 24.4876 2 22.298 2 20.0171C2 19.9943 2.01139 19.6864 2.03418 19.0934C2.6722 19.8917 3.40137 20.6558 4.22168 21.3856ZM19.124 28.1256C20.7646 28.4221 22.4167 28.616 24.0801 28.7072C24.2396 29.1634 24.4902 29.5854 24.832 29.9731C24.3079 32.368 23.9889 34.6945 23.875 36.9526C22.7129 37.2491 21.6419 37.4316 20.6621 37.5C19.5911 35.0595 18.7594 32.2996 18.167 29.2204C18.5771 28.9467 18.8962 28.5818 19.124 28.1256ZM29.7197 29.7678C30.016 29.4029 30.221 29.0152 30.335 28.6046C31.9984 28.4677 33.6048 28.2511 35.1543 27.9545C34.0605 30.0986 32.5566 31.9575 30.6426 33.5313C30.4375 32.3452 30.1299 31.0907 29.7197 29.7678ZM24.1484 26.5176C22.5534 26.4264 20.9811 26.2211 19.4316 25.9018C19.181 24.7613 18.5316 23.9744 17.4834 23.5411C17.3923 22.1953 17.3467 21.0207 17.3467 20.0171C17.3467 18.5117 17.415 16.9493 17.5518 15.3299C17.5973 15.3299 17.6543 15.3071 17.7227 15.2615C17.791 15.2159 17.8366 15.1931 17.8594 15.1931C18.748 16.0598 19.5228 16.8581 20.1836 17.588C22.166 19.7776 23.8522 22.2638 25.2422 25.0464C24.7409 25.4342 24.3763 25.9246 24.1484 26.5176ZM27.1904 30.9653C27.236 30.9653 27.3613 30.9539 27.5664 30.9311C27.9538 32.3224 28.2386 33.7023 28.4209 35.0709C27.7601 35.4586 26.9626 35.8464 26.0283 36.2341C26.1878 34.455 26.4613 32.6874 26.8486 30.9311C27.0309 30.9539 27.1449 30.9653 27.1904 30.9653ZM27.0195 22.7884C26.9967 22.834 26.9683 22.9024 26.9341 22.9936C26.8999 23.0849 26.8714 23.1533 26.8486 23.1989C25.4131 20.5987 23.7269 18.238 21.79 16.1168C21.0837 15.3185 20.2406 14.4518 19.2607 13.5166C19.2835 13.5166 19.3006 13.4995 19.312 13.4653L19.3291 13.414C21.2432 13.8017 23.0775 14.2807 24.832 14.8509C25.903 15.1931 27.0765 15.6492 28.3525 16.2195C28.307 16.4475 28.2842 16.6186 28.2842 16.7326C28.2842 17.4169 28.4893 18.0442 28.8994 18.6144C28.1475 20.0513 27.5208 21.4427 27.0195 22.7884ZM28.626 24.7727C28.8994 23.9744 29.0361 23.5639 29.0361 23.5411C29.4919 22.4006 30.0615 21.1804 30.7451 19.8803C31.0413 19.9715 31.3262 20.0171 31.5996 20.0171C32.3743 20.0171 33.0693 19.7548 33.6846 19.2302C34.8011 20.0057 35.8949 20.8724 36.9658 21.8304C36.8291 23.1305 36.5557 24.385 36.1455 25.5938C34.277 25.9816 32.306 26.2553 30.2324 26.415C29.9362 25.6851 29.4007 25.1377 28.626 24.7727ZM34.8809 16.6984C34.8809 15.9457 34.6302 15.2615 34.1289 14.6456C34.6074 14.0298 35.0859 13.471 35.5645 12.9692C36.3848 14.8395 36.8633 16.7669 37 18.7512C36.248 18.181 35.5189 17.6678 34.8125 17.2116C34.8581 17.0064 34.8809 16.8353 34.8809 16.6984Z" fill="black"/>
</svg>
